<?xml version="1.0" encoding="UTF-8" standalone="no" ?>
<!DOCTYPE svg PUBLIC "-//W3C//DTD SVG 1.1//EN" "http://www.w3.org/Graphics/SVG/1.1/DTD/svg11.dtd">
<svg xmlns="http://www.w3.org/2000/svg" xmlns:xlink="http://www.w3.org/1999/xlink" version="1.1" width="320" height="320" viewBox="0 0 320 320" xml:space="preserve">
<desc>Created with Fabric.js 5.3.0</desc>
<defs>
</defs>
<g transform="matrix(1.0189999718 0 0 1.0189999718 160.3576594698 159.6183179286)" id="eKAMaATS9j4pjC2fwNCUf"  >
<linearGradient id="SVGID_79" gradientUnits="userSpaceOnUse" gradientTransform="matrix(1 0 0 1 -157.01669 -157.01669)"  x1="10.147642461448442" y1="120.4205507104686" x2="326.0360255008826" y2="120.4205507104686">
<stop offset="0%" style="stop-color:#000000;stop-opacity: 1"/>
<stop offset="53.74866538528684%" style="stop-color:#808080;stop-opacity: 1"/>
<stop offset="100%" style="stop-color:#B0B0B0;stop-opacity: 1"/>
</linearGradient>
<path style="stroke: rgb(76,208,186); stroke-width: 0; stroke-dasharray: none; stroke-linecap: butt; stroke-dashoffset: 0; stroke-linejoin: miter; stroke-miterlimit: 4; fill: url(#SVGID_79); fill-rule: nonzero; opacity: 1;"  transform=" translate(0, 0)" d="M 0 -157.01669 C 86.67321 -157.01669 157.01669 -86.67321000000001 157.01669 0 C 157.01669 86.67321 86.67321000000001 157.01669 0 157.01669 C -86.67321 157.01669 -157.01669 86.67321000000001 -157.01669 0 C -157.01669 -86.67321 -86.67321000000001 -157.01669 0 -157.01669 z" stroke-linecap="round" />
</g>
<g transform="matrix(6.114 0 0 6.114 160.3576594698 160.136614704)" id="q0veQTwM-9V7ck6shuaEK"  >
<linearGradient id="SVGID_80" gradientUnits="userSpaceOnUse" gradientTransform="matrix(1 0 0 1 -24.53386 -24.53386)"  x1="33.145184253517286" y1="21.48417875221931" x2="-4.542415081716904" y2="29.967098789983908">
<stop offset="0%" style="stop-color:#CCCCCC;stop-opacity: 1"/>
<stop offset="52.349426580629085%" style="stop-color:#7E7E7E;stop-opacity: 1"/>
<stop offset="100%" style="stop-color:#000000;stop-opacity: 1"/>
</linearGradient>
<path style="stroke: rgb(104,39,232); stroke-width: 0; stroke-dasharray: none; stroke-linecap: butt; stroke-dashoffset: 0; stroke-linejoin: miter; stroke-miterlimit: 4; fill: url(#SVGID_80); fill-rule: nonzero; opacity: 1;"  transform=" translate(0, 0)" d="M 0 -24.53386 C 13.54269 -24.53386 24.53386 -13.54269 24.53386 0 C 24.53386 13.54269 13.54269 24.53386 0 24.53386 C -13.54269 24.53386 -24.53386 13.54269 -24.53386 0 C -24.53386 -13.54269 -13.54269 -24.53386 0 -24.53386 z" stroke-linecap="round" />
</g>
<g transform="matrix(0.9234568031 0 0 0.9234568031 159.8903667537 159.8903667537)" id="84ZZg-vmwFocLWNaOezcu"  >
<path style="stroke: rgb(190,166,223); stroke-width: 0; stroke-dasharray: none; stroke-linecap: butt; stroke-dashoffset: 0; stroke-linejoin: miter; stroke-miterlimit: 4; fill: rgb(255,255,255); fill-rule: nonzero; opacity: 1;"  transform=" translate(0, 0)" d="M 0 -129.94652 C 71.73048 -129.94652 129.94652 -71.73048 129.94652 0 C 129.94652 71.73048 71.73048 129.94652 0 129.94652 C -71.73048 129.94652 -129.94652 71.73048 -129.94652 0 C -129.94652 -71.73048 -71.73048 -129.94652 0 -129.94652 z" stroke-linecap="round" />
</g>
<g transform="matrix(0.96086954 0 0 0.96086954 160.3576594698 160.136614704)" id="46XjuW0OiMM4V7tME3BOF"  >
<linearGradient id="SVGID_81" gradientUnits="userSpaceOnUse" gradientTransform="matrix(1 0 0 1 -135.29412 -135.29412)"  x1="0" y1="135.29412119106564" x2="270.5882423821313" y2="135.29412119106564">
<stop offset="0%" style="stop-color:#0F0F0F;stop-opacity: 1"/>
<stop offset="50%" style="stop-color:#7e7e7e;stop-opacity: 1"/>
<stop offset="100%" style="stop-color:#999999;stop-opacity: 1"/>
</linearGradient>
<path style="stroke: rgb(202,66,130); stroke-width: 0; stroke-dasharray: none; stroke-linecap: butt; stroke-dashoffset: 0; stroke-linejoin: miter; stroke-miterlimit: 4; fill: url(#SVGID_81); fill-rule: nonzero; opacity: 1;"  transform=" translate(0, 0)" d="M 0 -135.29412 C 74.68235 -135.29412 135.29412 -74.68234999999999 135.29412 0 C 135.29412 74.68235 74.68234999999999 135.29412 0 135.29412 C -74.68235 135.29412 -135.29412 74.68234999999999 -135.29412 0 C -135.29412 -74.68235 -74.68234999999999 -135.29412 0 -135.29412 z" stroke-linecap="round" />
</g>
<g transform="matrix(-0.9234568031 0 0 -0.9310185853 159.8903646911 160.8729961131)" id="9c6loy7mlpGhUcWqMRQ09"  >
<path style="stroke: rgb(190,166,223); stroke-width: 0; stroke-dasharray: none; stroke-linecap: butt; stroke-dashoffset: 0; stroke-linejoin: miter; stroke-miterlimit: 4; fill: rgb(196,196,196); fill-rule: nonzero; opacity: 1;"  transform=" translate(0, 0)" d="M 0 -129.94652 C 71.73048 -129.94652 129.94652 -71.73048 129.94652 0 C 129.94652 71.73048 71.73048 129.94652 0 129.94652 C -71.73048 129.94652 -129.94652 71.73048 -129.94652 0 C -129.94652 -71.73048 -71.73048 -129.94652 0 -129.94652 z" stroke-linecap="round" />
</g>
<g transform="matrix(1.1295889813 0 0 1.1295889813 190.642210424 170.830741273)" id="fqWUEjXx1ZRrMUI-FhBGj"  >
<path style="stroke: rgb(255,255,255); stroke-width: 0; stroke-dasharray: none; stroke-linecap: butt; stroke-dashoffset: 0; stroke-linejoin: miter; stroke-miterlimit: 4; fill: rgb(0,0,0); fill-rule: nonzero; opacity: 1;"  transform=" translate(0, 0)" d="M 0 -88.27586 C 48.72828 -88.27586 88.27586 -48.728269999999995 88.27586 0 C 88.27586 48.72828 48.728269999999995 88.27586 0 88.27586 C -48.72828 88.27586 -88.27586 48.728269999999995 -88.27586 0 C -88.27586 -48.72828 -48.728269999999995 -88.27586 0 -88.27586 z" stroke-linecap="round" />
</g>
<g transform="matrix(-1.2178997642 0 0 0.6099566331 68.0844224865 165.5526645236)" id="JlbzQQREnV9ZunaSwItr0"  >
<path style="stroke: none; stroke-width: 1; stroke-dasharray: none; stroke-linecap: butt; stroke-dashoffset: 0; stroke-linejoin: miter; stroke-miterlimit: 4; fill: rgb(0,0,0); fill-rule: nonzero; opacity: 1;"  transform=" translate(0, 0)" d="M 3.35117 32.5 L 37.818830000000005 -8.879399999999997 L 3.3511700000000033 -32.5 L 3.3511700000000033 -11.895 L -37.81883 -11.895 L -37.81883 11.952000000000002 L 3.3511700000000033 11.952000000000002 z" stroke-linecap="round" />
</g>
<g transform="matrix(1.1295889813 0 0 1.1295889813 190.6422058619 163.587407804)" id="KA-g6NutbmXUury18IHPH"  >
<path style="stroke: rgb(255,255,255); stroke-width: 0; stroke-dasharray: none; stroke-linecap: butt; stroke-dashoffset: 0; stroke-linejoin: miter; stroke-miterlimit: 4; fill: rgb(255,255,255); fill-rule: nonzero; opacity: 1;"  transform=" translate(0, 0)" d="M 0 -88.27586 C 48.72828 -88.27586 88.27586 -48.728269999999995 88.27586 0 C 88.27586 48.72828 48.728269999999995 88.27586 0 88.27586 C -48.72828 88.27586 -88.27586 48.728269999999995 -88.27586 0 C -88.27586 -48.72828 -48.728269999999995 -88.27586 0 -88.27586 z" stroke-linecap="round" />
</g>
<g transform="matrix(0.3058390676 0 0 0.3058390676 190.642214986 159.6183179286)" id="HV2BxMUhwfboxZw6Rabd5"  >
<path style="stroke: rgb(255,255,255); stroke-width: 0; stroke-dasharray: none; stroke-linecap: butt; stroke-dashoffset: 0; stroke-linejoin: miter; stroke-miterlimit: 4; fill: rgb(255,255,255); fill-rule: nonzero; opacity: 1;"  transform=" translate(0, 0)" d="M 0 -88.27586 C 48.72828 -88.27586 88.27586 -48.728269999999995 88.27586 0 C 88.27586 48.72828 48.728269999999995 88.27586 0 88.27586 C -48.72828 88.27586 -88.27586 48.728269999999995 -88.27586 0 C -88.27586 -48.72828 -48.728269999999995 -88.27586 0 -88.27586 z" stroke-linecap="round" />
</g>
<g transform="matrix(1 0 0 1 147.2929983754 178.9761572907)" id="7eC0Nx4RKkdj81pHOGxGR"  >
<path style="stroke: rgb(0,0,0); stroke-width: 1; stroke-dasharray: none; stroke-linecap: butt; stroke-dashoffset: 0; stroke-linejoin: miter; stroke-miterlimit: 4; fill: rgb(255,255,255); fill-opacity: 0; fill-rule: nonzero; opacity: 1;"  transform=" translate(0, 0)" d="M 0 0" stroke-linecap="round" />
</g>
<g transform="matrix(0.9267668376 0 0 0.9267668376 190.642210424 162.0885621014)" id="oirp74TXR76CEcBzXaCq1"  >
<path style="stroke: rgb(255,255,255); stroke-width: 0; stroke-dasharray: none; stroke-linecap: butt; stroke-dashoffset: 0; stroke-linejoin: miter; stroke-miterlimit: 4; fill: rgb(0,0,0); fill-rule: nonzero; opacity: 1;"  transform=" translate(0, 0)" d="M 0 -88.27586 C 48.72828 -88.27586 88.27586 -48.728269999999995 88.27586 0 C 88.27586 48.72828 48.728269999999995 88.27586 0 88.27586 C -48.72828 88.27586 -88.27586 48.728269999999995 -88.27586 0 C -88.27586 -48.72828 -48.728269999999995 -88.27586 0 -88.27586 z" stroke-linecap="round" />
</g>
<g transform="matrix(0.9267668376 0 0 0.8857268701 190.6422066842 167.4670984721)" id="GFiSf9oe_nlz6yg4GZgNB"  >
<path style="stroke: rgb(255,255,255); stroke-width: 0; stroke-dasharray: none; stroke-linecap: butt; stroke-dashoffset: 0; stroke-linejoin: miter; stroke-miterlimit: 4; fill: rgb(196,196,196); fill-rule: nonzero; opacity: 1;"  transform=" translate(0, 0)" d="M 0 -88.27586 C 48.72828 -88.27586 88.27586 -48.728269999999995 88.27586 0 C 88.27586 48.72828 48.728269999999995 88.27586 0 88.27586 C -48.72828 88.27586 -88.27586 48.728269999999995 -88.27586 0 C -88.27586 -48.72828 -48.728269999999995 -88.27586 0 -88.27586 z" stroke-linecap="round" />
</g>
<g transform="matrix(0.0971370576 -0.0606979702 0.6470105066 1.0354332544 185.9014283396 166.4557488415)" id="cQ9kzkdNFbpsZsmh5M4Nr"  >
<path style="stroke: rgb(255,255,255); stroke-width: 0; stroke-dasharray: none; stroke-linecap: butt; stroke-dashoffset: 0; stroke-linejoin: miter; stroke-miterlimit: 4; fill: rgb(0,0,0); fill-rule: nonzero; opacity: 1;"  transform=" translate(0, 0)" d="M -66.2069 -66.2069 L 66.2069 -66.2069 L 66.2069 66.2069 L -66.2069 66.2069 z" stroke-linecap="round" />
</g>
<g transform="matrix(-0.0896634156 -0.0560279204 -0.6406449721 1.0252462697 195.6444518491 167.4670984721)" id="Ag3f19ebVW-9PViqw8p5F"  >
<path style="stroke: rgb(255,255,255); stroke-width: 0; stroke-dasharray: none; stroke-linecap: butt; stroke-dashoffset: 0; stroke-linejoin: miter; stroke-miterlimit: 4; fill: rgb(0,0,0); fill-rule: nonzero; opacity: 1;"  transform=" translate(0, 0)" d="M -66.2069 -66.2069 L 66.2069 -66.2069 L 66.2069 66.2069 L -66.2069 66.2069 z" stroke-linecap="round" />
</g>
<g transform="matrix(0 -0.1354127261 -1.2110351578 0 190.642210424 165.5526645236)" id="vIfxeZKie1VOPbyM176Oc"  >
<path style="stroke: rgb(255,255,255); stroke-width: 0; stroke-dasharray: none; stroke-linecap: butt; stroke-dashoffset: 0; stroke-linejoin: miter; stroke-miterlimit: 4; fill: rgb(0,0,0); fill-rule: nonzero; opacity: 1;"  transform=" translate(0, 0)" d="M -66.2069 -66.40675 L 5.960189999999997 -67.55472 L 66.20689999999999 -66.40675 L 66.20689999999999 66.00705 L 6.936599999999991 67.55472 L -66.20689000000002 66.00705 z" stroke-linecap="round" />
</g>
<g transform="matrix(0.0896634155 -0.0560279203 0.7750616288 1.2403578868 191.9962651555 163.8442598812)" id="YgLKQJXmkknenvo9Iz1qy"  >
<path style="stroke: rgb(255,255,255); stroke-width: 0; stroke-dasharray: none; stroke-linecap: butt; stroke-dashoffset: 0; stroke-linejoin: miter; stroke-miterlimit: 4; fill: rgb(255,255,255); fill-rule: nonzero; opacity: 1;"  transform=" translate(0, 0)" d="M -66.2069 -66.2069 L 66.2069 -66.2069 L 66.2069 66.2069 L -66.2069 66.2069 z" stroke-linecap="round" />
</g>
<g transform="matrix(-0.0896634155 -0.0560279203 -0.751280385 1.2022999411 190.642214986 163.587407804)" id="EojC7YbKhPgq1HO8BtUJl"  >
<path style="stroke: rgb(255,255,255); stroke-width: 0; stroke-dasharray: none; stroke-linecap: butt; stroke-dashoffset: 0; stroke-linejoin: miter; stroke-miterlimit: 4; fill: rgb(255,255,255); fill-rule: nonzero; opacity: 1;"  transform=" translate(0, 0)" d="M -66.2069 -66.2069 L 66.2069 -66.2069 L 66.2069 66.2069 L -66.2069 66.2069 z" stroke-linecap="round" />
</g>
<g transform="matrix(0 -0.1057291632 -1.4177268801 0 190.642214986 159.6183179286)" id="Wd3is6s5px9n5ey74sp-Q"  >
<path style="stroke: rgb(255,255,255); stroke-width: 0; stroke-dasharray: none; stroke-linecap: butt; stroke-dashoffset: 0; stroke-linejoin: miter; stroke-miterlimit: 4; fill: rgb(255,255,255); fill-rule: nonzero; opacity: 1;"  transform=" translate(0, 0)" d="M -66.2069 -66.2069 L 66.2069 -66.2069 L 66.2069 66.2069 L -66.2069 66.2069 z" stroke-linecap="round" />
</g>
<g transform="matrix(-1.0716813899 0 0 0.6099566331 65.4279753471 158.8475883971)" id="OeS6a6ka7i27ON0_uae77"  >
<path style="stroke: none; stroke-width: 1; stroke-dasharray: none; stroke-linecap: butt; stroke-dashoffset: 0; stroke-linejoin: miter; stroke-miterlimit: 4; fill: rgb(255,255,255); fill-rule: nonzero; opacity: 1;"  transform=" translate(-40, -40)" d="M 41.17 72.5 L 80 40 L 41.17 7.5 L 41.17 28.105 L 0 28.105 L 0 51.952 L 41.17 51.952 L 41.17 72.5 z" stroke-linecap="round" />
</g>
</svg>