<?xml version="1.0" encoding="UTF-8" standalone="no" ?>
<!DOCTYPE svg PUBLIC "-//W3C//DTD SVG 1.1//EN" "http://www.w3.org/Graphics/SVG/1.1/DTD/svg11.dtd">
<svg xmlns="http://www.w3.org/2000/svg" xmlns:xlink="http://www.w3.org/1999/xlink" version="1.1" width="320" height="320" viewBox="0 0 320 320" xml:space="preserve">
<desc>Created with Fabric.js 5.3.0</desc>
<defs>
</defs>
<g transform="matrix(1.0189999718 0 0 1.0189999718 160.4672897196 160.4672897196)" id="UmbCNAxJNGfcGMR5jWzeL"  >
<linearGradient id="SVGID_1163_5" gradientUnits="userSpaceOnUse" gradientTransform="matrix(1 0 0 1 -157.01669 -157.01669)"  x1="10.147642461448442" y1="120.4205507104686" x2="326.0360255008826" y2="120.4205507104686">
<stop offset="0%" style="stop-color:#000000;stop-opacity: 1"/>
<stop offset="53.74866538528684%" style="stop-color:#808080;stop-opacity: 1"/>
<stop offset="100%" style="stop-color:#B0B0B0;stop-opacity: 1"/>
</linearGradient>
<path style="stroke: rgb(76,208,186); stroke-width: 0; stroke-dasharray: none; stroke-linecap: butt; stroke-dashoffset: 0; stroke-linejoin: miter; stroke-miterlimit: 4; fill: url(#SVGID_1163_5); fill-rule: nonzero; opacity: 1;"  transform=" translate(0, 0)" d="M 0 -157.01669 C 86.67321 -157.01669 157.01669 -86.67321000000001 157.01669 0 C 157.01669 86.67321 86.67321000000001 157.01669 0 157.01669 C -86.67321 157.01669 -157.01669 86.67321000000001 -157.01669 0 C -157.01669 -86.67321 -86.67321000000001 -157.01669 0 -157.01669 z" stroke-linecap="round" />
</g>
<g transform="matrix(6.114 0 0 6.114 160.4672897196 160.4672897196)" id="g2dPsqSd4qbAO69eO3CHC"  >
<linearGradient id="SVGID_404_6" gradientUnits="userSpaceOnUse" gradientTransform="matrix(1 0 0 1 -24.53386 -24.53386)"  x1="33.145184253517286" y1="21.48417875221931" x2="-4.542415081716904" y2="29.967098789983908">
<stop offset="0%" style="stop-color:#CCCCCC;stop-opacity: 1"/>
<stop offset="52.349426580629085%" style="stop-color:#7E7E7E;stop-opacity: 1"/>
<stop offset="100%" style="stop-color:#000000;stop-opacity: 1"/>
</linearGradient>
<path style="stroke: rgb(104,39,232); stroke-width: 0; stroke-dasharray: none; stroke-linecap: butt; stroke-dashoffset: 0; stroke-linejoin: miter; stroke-miterlimit: 4; fill: url(#SVGID_404_6); fill-rule: nonzero; opacity: 1;"  transform=" translate(0, 0)" d="M 0 -24.53386 C 13.54269 -24.53386 24.53386 -13.54269 24.53386 0 C 24.53386 13.54269 13.54269 24.53386 0 24.53386 C -13.54269 24.53386 -24.53386 13.54269 -24.53386 0 C -24.53386 -13.54269 -13.54269 -24.53386 0 -24.53386 z" stroke-linecap="round" />
</g>
<g transform="matrix(0.96086954 0 0 0.96086954 160.4672897196 160.4672897196)" id="_8ilP0mpsdEFqsmg18Ng-"  >
<linearGradient id="SVGID_1246_7" gradientUnits="userSpaceOnUse" gradientTransform="matrix(1 0 0 1 -135.29412 -135.29412)"  x1="0" y1="135.29412119106564" x2="270.5882423821313" y2="135.29412119106564">
<stop offset="0%" style="stop-color:#0F0F0F;stop-opacity: 1"/>
<stop offset="50%" style="stop-color:#7e7e7e;stop-opacity: 1"/>
<stop offset="100%" style="stop-color:#999999;stop-opacity: 1"/>
</linearGradient>
<path style="stroke: rgb(202,66,130); stroke-width: 0; stroke-dasharray: none; stroke-linecap: butt; stroke-dashoffset: 0; stroke-linejoin: miter; stroke-miterlimit: 4; fill: url(#SVGID_1246_7); fill-rule: nonzero; opacity: 1;"  transform=" translate(0, 0)" d="M 0 -135.29412 C 74.68235 -135.29412 135.29412 -74.68234999999999 135.29412 0 C 135.29412 74.68235 74.68234999999999 135.29412 0 135.29412 C -74.68235 135.29412 -135.29412 74.68234999999999 -135.29412 0 C -135.29412 -74.68235 -74.68234999999999 -135.29412 0 -135.29412 z" stroke-linecap="round" />
</g>
<g transform="matrix(0.9234568031 0 0 0.9234568031 160 160)" id="xDUq9EL8wotfK_vIc2Fmd"  >
<path style="stroke: rgb(190,166,223); stroke-width: 0; stroke-dasharray: none; stroke-linecap: butt; stroke-dashoffset: 0; stroke-linejoin: miter; stroke-miterlimit: 4; fill: rgb(255,254,187); fill-rule: nonzero; opacity: 1;"  transform=" translate(0, 0)" d="M 0 -129.94652 C 71.73048 -129.94652 129.94652 -71.73048 129.94652 0 C 129.94652 71.73048 71.73048 129.94652 0 129.94652 C -71.73048 129.94652 -129.94652 71.73048 -129.94652 0 C -129.94652 -71.73048 -71.73048 -129.94652 0 -129.94652 z" stroke-linecap="round" />
</g>
<g transform="matrix(0.9234568031 0 0 0.8649444083 159.9999981806 164.6310017111)" id="GXZ34xxvvGycQo2AGWdqV"  >
<path style="stroke: rgb(190,166,223); stroke-width: 0; stroke-dasharray: none; stroke-linecap: butt; stroke-dashoffset: 0; stroke-linejoin: miter; stroke-miterlimit: 4; fill: rgb(255,226,18); fill-rule: nonzero; opacity: 1;"  transform=" translate(0, 0)" d="M 0 -129.94652 C 71.73048 -129.94652 129.94652 -71.73048 129.94652 0 C 129.94652 71.73048 71.73048 129.94652 0 129.94652 C -71.73048 129.94652 -129.94652 71.73048 -129.94652 0 C -129.94652 -71.73048 -71.73048 -129.94652 0 -129.94652 z" stroke-linecap="round" />
</g>
<g transform="matrix(0.8014285889 0 0 0.8014285787 160.4672897196 200.4672897199)" id="6szV--f2zqLwIJpyAUqMm"  >
<path style="stroke: rgb(170,112,223); stroke-width: 0; stroke-dasharray: none; stroke-linecap: butt; stroke-dashoffset: 0; stroke-linejoin: miter; stroke-miterlimit: 4; fill: rgb(0,0,0); fill-rule: nonzero; opacity: 1;"  transform=" translate(0, 0)" d="M 0 -112.29946 C 61.9893 -112.29946 112.29946 -61.98929999999999 112.29946 0 C 112.29946 61.9893 61.98929999999999 112.29946 0 112.29946 C -61.9893 112.29946 -112.29946 61.98929999999999 -112.29946 0 C -112.29946 -61.9893 -61.98929999999999 -112.29946 0 -112.29946 z" stroke-linecap="round" />
</g>
<g transform="matrix(0.8014285889 0 0 0.8014285889 160 190)" id="V8FcnGE76vw7kEGRnxDds"  >
<path style="stroke: rgb(170,112,223); stroke-width: 0; stroke-dasharray: none; stroke-linecap: butt; stroke-dashoffset: 0; stroke-linejoin: miter; stroke-miterlimit: 4; fill: rgb(255,255,255); fill-rule: nonzero; opacity: 1;"  transform=" translate(0, 0)" d="M 0 -112.29946 C 61.9893 -112.29946 112.29946 -61.98929999999999 112.29946 0 C 112.29946 61.9893 61.98929999999999 112.29946 0 112.29946 C -61.9893 112.29946 -112.29946 61.98929999999999 -112.29946 0 C -112.29946 -61.9893 -61.98929999999999 -112.29946 0 -112.29946 z" stroke-linecap="round" />
</g>
<g transform="matrix(0.6187682759 0 0 0.6187682759 160.0000000042 187.4956787536)" id="qwYyNL7jofDaQklghyhcA"  >
<path style="stroke: rgb(170,112,223); stroke-width: 0; stroke-dasharray: none; stroke-linecap: butt; stroke-dashoffset: 0; stroke-linejoin: miter; stroke-miterlimit: 4; fill: rgb(0,0,0); fill-rule: nonzero; opacity: 1;"  transform=" translate(0, 0)" d="M 0 -112.29946 C 61.9893 -112.29946 112.29946 -61.98929999999999 112.29946 0 C 112.29946 61.9893 61.98929999999999 112.29946 0 112.29946 C -61.9893 112.29946 -112.29946 61.98929999999999 -112.29946 0 C -112.29946 -61.9893 -61.98929999999999 -112.29946 0 -112.29946 z" stroke-linecap="round" />
</g>
<g transform="matrix(0.5821078806 0 0 0.5726572662 159.9999981806 195.2651765765)" id="kPXx8DA6KSJkgxkZZawsO"  >
<path style="stroke: rgb(170,112,223); stroke-width: 0; stroke-dasharray: none; stroke-linecap: butt; stroke-dashoffset: 0; stroke-linejoin: miter; stroke-miterlimit: 4; fill: rgb(255,226,18); fill-rule: nonzero; opacity: 1;"  transform=" translate(0, 0)" d="M 0 -112.29946 C 61.9893 -112.29946 112.29946 -61.98929999999999 112.29946 0 C 112.29946 61.9893 61.98929999999999 112.29946 0 112.29946 C -61.9893 112.29946 -112.29946 61.98929999999999 -112.29946 0 C -112.29946 -61.9893 -61.98929999999999 -112.29946 0 -112.29946 z" stroke-linecap="round" />
</g>
<g transform="matrix(0.8115371772 0 0 0.8659431613 160.2844519714 58.6871783742)" id="lAB1TbQHseurFP6_41a_O"  >
<path style="stroke: none; stroke-width: 1; stroke-dasharray: none; stroke-linecap: butt; stroke-dashoffset: 0; stroke-linejoin: miter; stroke-miterlimit: 4; fill: rgb(0,0,0); fill-rule: nonzero; opacity: 1;"  transform=" translate(-40, -40)" d="M 60 40 L 80 80 L 40 80 L 0 80 L 20 40 L 40 0 L 60 40 z" stroke-linecap="round" />
</g>
<g transform="matrix(0.7527466356 0 0 0.8514331654 160.0636395574 53.2260953732)" id="eDCObdqeyrFfErZjBH9zT"  >
<path style="stroke: none; stroke-width: 1; stroke-dasharray: none; stroke-linecap: butt; stroke-dashoffset: 0; stroke-linejoin: miter; stroke-miterlimit: 4; fill: rgb(255,255,255); fill-rule: nonzero; opacity: 1;"  transform=" translate(-40, -40)" d="M 60 40 L 80 80 L 40 80 L 0 80 L 20 40 L 40 0 L 60 40 z" stroke-linecap="round" />
</g>
<g transform="matrix(1.4114420044 0 0 6.1122211473 159.9999981806 122.4114720892)" id="VoIvEXUV2kuWXeyS9MBk5"  >
<path style="stroke: rgb(184,58,135); stroke-width: 0; stroke-dasharray: none; stroke-linecap: butt; stroke-dashoffset: 0; stroke-linejoin: miter; stroke-miterlimit: 4; fill: rgb(255,255,255); fill-rule: nonzero; opacity: 1;"  transform=" translate(-0.000005, -0.000005)" d="M -6.14973 -6.14973 L 6.1497399999999995 -6.14973 L 6.1497399999999995 6.1497399999999995 L -6.14973 6.1497399999999995 z" stroke-linecap="round" />
</g>
<g transform="matrix(1.0743346359 0 0 1.0743346359 157.9629684732 187.4956787536)" id="4tyE8ImMxncas2inTuUE_"  >
<path style="stroke: rgb(167,33,21); stroke-width: 0; stroke-dasharray: none; stroke-linecap: butt; stroke-dashoffset: 0; stroke-linejoin: miter; stroke-miterlimit: 4; fill: rgb(255,255,255); fill-rule: nonzero; opacity: 1;"  transform=" translate(0, 0)" d="M 0 -33.68983 C 18.59679 -33.68983 33.68983 -18.596780000000003 33.68983 0 C 33.68983 18.59679 18.596780000000003 33.68983 0 33.68983 C -18.59679 33.68983 -33.68983 18.596780000000003 -33.68983 0 C -33.68983 -18.59679 -18.596780000000003 -33.68983 0 -33.68983 z" stroke-linecap="round" />
</g>
<g transform="matrix(1.4597028876 0 0 1 159.9999981806 216.2032092046)" id="O0ZSdfQgCusRuguAfxfrA"  >
<path style="stroke: rgb(205,96,115); stroke-width: 0; stroke-dasharray: none; stroke-linecap: butt; stroke-dashoffset: 0; stroke-linejoin: miter; stroke-miterlimit: 4; fill: rgb(255,226,18); fill-rule: nonzero; opacity: 1;"  transform=" translate(0, 0)" d="M -26.20321 -26.20321 L 26.20321 -26.20321 L 26.20321 26.20321 L -26.20321 26.20321 z" stroke-linecap="round" />
</g>
<g transform="matrix(0 0.9105556919 -0.6237952255 0 185.0254269016 174.1893216639)" id="zGlv_DwcGLQdmRFRXbI78"  >
<path style="stroke: rgb(205,96,115); stroke-width: 0; stroke-dasharray: none; stroke-linecap: butt; stroke-dashoffset: 0; stroke-linejoin: miter; stroke-miterlimit: 4; fill: rgb(255,226,18); fill-rule: nonzero; opacity: 1;"  transform=" translate(0, 0)" d="M -26.20321 -26.20321 L 26.20321 -26.20321 L 26.20321 26.20321 L -26.20321 26.20321 z" stroke-linecap="round" />
</g>
<g transform="matrix(1 0 0 1 164.727047646 195.2651765765)" id="mQpiZ0WtyyBkJpd4fjH72"  >
<path style="stroke: rgb(62,19,246); stroke-width: 0; stroke-dasharray: none; stroke-linecap: butt; stroke-dashoffset: 0; stroke-linejoin: miter; stroke-miterlimit: 4; fill: rgb(255,226,18); fill-rule: nonzero; opacity: 1;"  transform=" translate(-28.42466, -28.42466)" d="M 28.42466 0 C 44.11507 0 56.84932 12.73425 56.84932 28.42466 C 56.84932 44.11507 44.11507 56.84932 28.42466 56.84932 C 12.73425 56.84932 0 44.11507 0 28.42466 C 0 12.73425 12.73425 0 28.42466 0 z" stroke-linecap="round" />
</g>
<g transform="matrix(1.2942440367 0 0 1.2942440367 173.081258833 198.3616092957)" id="uzvwpZWg1k5wtVvyem3tD"  >
<path style="stroke: rgb(218,242,10); stroke-width: 0; stroke-dasharray: none; stroke-linecap: butt; stroke-dashoffset: 0; stroke-linejoin: miter; stroke-miterlimit: 4; fill: rgb(0,0,0); fill-rule: nonzero; opacity: 1;"  transform=" translate(0, 0)" d="M 0 -28.41726 C 15.68633 -28.41726 28.41726 -15.686329999999998 28.41726 0 C 28.41726 15.68633 15.686329999999998 28.41726 0 28.41726 C -15.68633 28.41726 -28.41726 15.686329999999998 -28.41726 0 C -28.41726 -15.68633 -15.686329999999998 -28.41726 0 -28.41726 z" stroke-linecap="round" />
</g>
<g transform="matrix(1.1838375915 0 0 1.245782618 179.8401604189 206.53053308)" id="xOOj0OJv6v1pSerzlGk1j"  >
<path style="stroke: rgb(119,226,22); stroke-width: 0; stroke-dasharray: none; stroke-linecap: butt; stroke-dashoffset: 0; stroke-linejoin: miter; stroke-miterlimit: 4; fill: rgb(255,226,18); fill-rule: nonzero; opacity: 1;"  transform=" translate(0, 0)" d="M 0 -33.6331 C 18.56547 -33.6331 33.6331 -18.565469999999998 33.6331 0 C 33.6331 18.56547 18.565469999999998 33.6331 0 33.6331 C -18.56547 33.6331 -33.6331 18.565469999999998 -33.6331 0 C -33.6331 -18.56547 -18.565469999999998 -33.6331 0 -33.6331 z" stroke-linecap="round" />
</g>
<g transform="matrix(1 0 0 1 136.4922576337 213.2812832127)" id="PToEMZw-z2Ekez7lQu5nk"  >
<path style="stroke: rgb(0,0,0); stroke-width: 0; stroke-dasharray: none; stroke-linecap: butt; stroke-dashoffset: 0; stroke-linejoin: miter; stroke-miterlimit: 4; fill: rgb(255,226,18); fill-rule: nonzero; opacity: 1;"  transform=" translate(-15.27778, -15.27778)" d="M 0 0 L 30.55556 0 L 30.55556 30.55556 L 0 30.55556 z" stroke-linecap="round" />
</g>
<g transform="matrix(1.3255551287 0 0 0.6831666151 129.5774008137 194.0244023642)" id="6P_lV-n4P8kAwaTnFGXTm"  >
<path style="stroke: rgb(15,116,246); stroke-width: 0; stroke-dasharray: none; stroke-linecap: butt; stroke-dashoffset: 0; stroke-linejoin: miter; stroke-miterlimit: 4; fill: rgb(0,0,0); fill-rule: nonzero; opacity: 1;"  transform=" translate(0.000005, 0.000005)" d="M -5.89081 -5.89081 L 5.8908000000000005 -5.89081 L 5.8908000000000005 5.8908000000000005 L -5.89081 5.8908000000000005 z" stroke-linecap="round" />
</g>
<g transform="matrix(1 0 0 1 183.9577696107 166.8405165765)" id="FWkCx2reKV4y1Q1xneSz0"  >
<path style="stroke: rgb(0,0,0); stroke-width: 0; stroke-dasharray: none; stroke-linecap: butt; stroke-dashoffset: 0; stroke-linejoin: miter; stroke-miterlimit: 4; fill: rgb(255,226,18); fill-rule: nonzero; opacity: 1;"  transform=" translate(-15.27778, -15.27778)" d="M 0 0 L 30.55556 0 L 30.55556 30.55556 L 0 30.55556 z" stroke-linecap="round" />
</g>
</svg>