<?xml version="1.0" encoding="UTF-8" standalone="no" ?>
<!DOCTYPE svg PUBLIC "-//W3C//DTD SVG 1.1//EN" "http://www.w3.org/Graphics/SVG/1.1/DTD/svg11.dtd">
<svg xmlns="http://www.w3.org/2000/svg" xmlns:xlink="http://www.w3.org/1999/xlink" version="1.1" width="320" height="320" viewBox="0 0 320 320" xml:space="preserve">
<desc>Created with Fabric.js 5.3.0</desc>
<defs>
</defs>
<g transform="matrix(1.0189999718 0 0 1.0189999718 160.3576594698 159.6183179286)" id="eKAMaATS9j4pjC2fwNCUf"  >
<linearGradient id="SVGID_55" gradientUnits="userSpaceOnUse" gradientTransform="matrix(1 0 0 1 -157.01669 -157.01669)"  x1="10.147642461448442" y1="120.4205507104686" x2="326.0360255008826" y2="120.4205507104686">
<stop offset="0%" style="stop-color:#000000;stop-opacity: 1"/>
<stop offset="53.74866538528684%" style="stop-color:#808080;stop-opacity: 1"/>
<stop offset="100%" style="stop-color:#B0B0B0;stop-opacity: 1"/>
</linearGradient>
<path style="stroke: rgb(76,208,186); stroke-width: 0; stroke-dasharray: none; stroke-linecap: butt; stroke-dashoffset: 0; stroke-linejoin: miter; stroke-miterlimit: 4; fill: url(#SVGID_55); fill-rule: nonzero; opacity: 1;"  transform=" translate(0, 0)" d="M 0 -157.01669 C 86.67321 -157.01669 157.01669 -86.67321000000001 157.01669 0 C 157.01669 86.67321 86.67321000000001 157.01669 0 157.01669 C -86.67321 157.01669 -157.01669 86.67321000000001 -157.01669 0 C -157.01669 -86.67321 -86.67321000000001 -157.01669 0 -157.01669 z" stroke-linecap="round" />
</g>
<g transform="matrix(1 0 0 1 98.180962323 154.7657938789)" id="cgmOiKNXTfICy2zwxtalJ"  >
<path style="stroke: rgb(0,0,0); stroke-width: 0; stroke-dasharray: none; stroke-linecap: butt; stroke-dashoffset: 0; stroke-linejoin: miter; stroke-miterlimit: 4; fill: rgb(0,0,0); fill-rule: nonzero; opacity: 1;"  transform=" translate(-28.507465, -28.507465)" d="M 0 0 L 57.01493 0 L 57.01493 57.01493 L 0 57.01493 z" stroke-linecap="round" />
</g>
<g transform="matrix(6.114 0 0 6.114 160.3576594698 160.136614704)" id="q0veQTwM-9V7ck6shuaEK"  >
<linearGradient id="SVGID_56" gradientUnits="userSpaceOnUse" gradientTransform="matrix(1 0 0 1 -24.53386 -24.53386)"  x1="33.145184253517286" y1="21.48417875221931" x2="-4.542415081716904" y2="29.967098789983908">
<stop offset="0%" style="stop-color:#CCCCCC;stop-opacity: 1"/>
<stop offset="52.349426580629085%" style="stop-color:#7E7E7E;stop-opacity: 1"/>
<stop offset="100%" style="stop-color:#000000;stop-opacity: 1"/>
</linearGradient>
<path style="stroke: rgb(104,39,232); stroke-width: 0; stroke-dasharray: none; stroke-linecap: butt; stroke-dashoffset: 0; stroke-linejoin: miter; stroke-miterlimit: 4; fill: url(#SVGID_56); fill-rule: nonzero; opacity: 1;"  transform=" translate(0, 0)" d="M 0 -24.53386 C 13.54269 -24.53386 24.53386 -13.54269 24.53386 0 C 24.53386 13.54269 13.54269 24.53386 0 24.53386 C -13.54269 24.53386 -24.53386 13.54269 -24.53386 0 C -24.53386 -13.54269 -13.54269 -24.53386 0 -24.53386 z" stroke-linecap="round" />
</g>
<g transform="matrix(0.96086954 0 0 0.96086954 160.3576594698 160.136614704)" id="46XjuW0OiMM4V7tME3BOF"  >
<linearGradient id="SVGID_57" gradientUnits="userSpaceOnUse" gradientTransform="matrix(1 0 0 1 -135.29412 -135.29412)"  x1="0" y1="135.29412119106564" x2="270.5882423821313" y2="135.29412119106564">
<stop offset="0%" style="stop-color:#0F0F0F;stop-opacity: 1"/>
<stop offset="50%" style="stop-color:#7e7e7e;stop-opacity: 1"/>
<stop offset="100%" style="stop-color:#999999;stop-opacity: 1"/>
</linearGradient>
<path style="stroke: rgb(202,66,130); stroke-width: 0; stroke-dasharray: none; stroke-linecap: butt; stroke-dashoffset: 0; stroke-linejoin: miter; stroke-miterlimit: 4; fill: url(#SVGID_57); fill-rule: nonzero; opacity: 1;"  transform=" translate(0, 0)" d="M 0 -135.29412 C 74.68235 -135.29412 135.29412 -74.68234999999999 135.29412 0 C 135.29412 74.68235 74.68234999999999 135.29412 0 135.29412 C -74.68235 135.29412 -135.29412 74.68234999999999 -135.29412 0 C -135.29412 -74.68235 -74.68234999999999 -135.29412 0 -135.29412 z" stroke-linecap="round" />
</g>
<g transform="matrix(0.9234568031 0 0 0.9234568031 159.8903667537 159.8903667537)" id="84ZZg-vmwFocLWNaOezcu"  >
<linearGradient id="SVGID_1360_58" gradientUnits="userSpaceOnUse" gradientTransform="matrix(1 0 0 1 -129.94652 -129.94652)"  x1="135.3609606647338" y1="-2.842170943040401e-14" x2="121.63148732102178" y2="293.3465368024287">
<stop offset="0%" style="stop-color:#B8E0FF;stop-opacity: 1"/>
<stop offset="50%" style="stop-color:#7e7e7e;stop-opacity: 1"/>
<stop offset="100%" style="stop-color:#000000;stop-opacity: 1"/>
</linearGradient>
<path style="stroke: rgb(190,166,223); stroke-width: 0; stroke-dasharray: none; stroke-linecap: butt; stroke-dashoffset: 0; stroke-linejoin: miter; stroke-miterlimit: 4; fill: url(#SVGID_1360_58); fill-rule: nonzero; opacity: 1;"  transform=" translate(0, 0)" d="M 0 -129.94652 C 71.73048 -129.94652 129.94652 -71.73048 129.94652 0 C 129.94652 71.73048 71.73048 129.94652 0 129.94652 C -71.73048 129.94652 -129.94652 71.73048 -129.94652 0 C -129.94652 -71.73048 -71.73048 -129.94652 0 -129.94652 z" stroke-linecap="round" />
</g>
<g transform="matrix(-0.9234568031 0 0 -0.8950063217 159.8903667537 163.587407804)" id="9c6loy7mlpGhUcWqMRQ09"  >
<linearGradient id="SVGID_1308_59" gradientUnits="userSpaceOnUse" gradientTransform="matrix(1 0 0 1 -129.94652 -129.94652)"  x1="129.94652" y1="2.842170943040401e-14" x2="124.80222799220607" y2="362.8384396051115">
<stop offset="0%" style="stop-color:#318CF7;stop-opacity: 1"/>
<stop offset="97.28078032705298%" style="stop-color:#46C7FF;stop-opacity: 1"/>
<stop offset="100%" style="stop-color:#000000;stop-opacity: 1"/>
</linearGradient>
<path style="stroke: rgb(190,166,223); stroke-width: 0; stroke-dasharray: none; stroke-linecap: butt; stroke-dashoffset: 0; stroke-linejoin: miter; stroke-miterlimit: 4; fill: url(#SVGID_1308_59); fill-rule: nonzero; opacity: 1;"  transform=" translate(0, 0)" d="M 0 -129.94652 C 71.73048 -129.94652 129.94652 -71.73048 129.94652 0 C 129.94652 71.73048 71.73048 129.94652 0 129.94652 C -71.73048 129.94652 -129.94652 71.73048 -129.94652 0 C -129.94652 -71.73048 -71.73048 -129.94652 0 -129.94652 z" stroke-linecap="round" />
</g>
<g transform="matrix(-2.1482334767 0.2637699042 -0.2743663254 -2.234534402 170.1528305674 214.1021800319)" id="aANpgMv9z3Fl1UPcQFgHi"  >
<path style="stroke: none; stroke-width: 1; stroke-dasharray: none; stroke-linecap: butt; stroke-dashoffset: 0; stroke-linejoin: miter; stroke-miterlimit: 4; fill: rgb(0,0,0); fill-rule: nonzero; opacity: 1;"  transform=" translate(-0.0000069012, 0.000003317)" d="M 27.13299 -4.12761 C 37.13299 15.87239 38.95686 39.48378 38.95686 39.48378 L -1.043140000000001 39.48378 L -36.37071 39.48378 L -36.37071 39.48378 C -37.311370000000004 39.48378 -38.17786 38.992740000000005 -38.63338 38.20152 C -39.088910000000006 37.4103 -39.06163 36.44368 -38.56215 35.67736 L -25.989440000000002 16.38784 L -22.783710000000003 11.46949 L -22.783710000000003 11.46949 C -18.489570000000004 4.88126 -14.976770000000002 -2.148769999999999 -12.311050000000003 -9.489059999999998 L -1.726410000000003 -38.63476 L -1.726410000000003 -38.63476 C -1.577850000000003 -39.04382 -1.2220800000000032 -39.35149 -0.7832900000000032 -39.45035 C -0.3444900000000031 -39.54922 0.11641999999999686 -39.42557 0.4385699999999968 -39.12256 C 11.086279999999997 -29.1075 17.566699999999997 -23.26022 27.132999999999996 -4.127609999999997 z" stroke-linecap="round" />
</g>
<g transform="matrix(-2.0684386221 0.253972328 -0.2675226789 -2.1787973746 170.1528305674 207.3294221969)" id="JpbH06fGUAKCwstOls77T"  >
<path style="stroke: none; stroke-width: 1; stroke-dasharray: none; stroke-linecap: butt; stroke-dashoffset: 0; stroke-linejoin: miter; stroke-miterlimit: 4; fill: rgb(255,255,255); fill-rule: nonzero; opacity: 1;"  transform=" translate(-0.0000074508, -0.0000070236)" d="M 27.13016 -4.13308 C 37.130160000000004 15.86692 38.95403 39.47831 38.95403 39.47831 L -1.045969999999997 39.47831 L -36.321749999999994 39.47831 L -36.321749999999994 39.47831 C -37.276529999999994 39.47831 -38.15644999999999 38.98749 -38.62116999999999 38.19568 C -39.08588999999999 37.40388 -39.06253999999999 36.43525 -38.56013999999999 35.66447 L -22.75880999999999 11.421490000000002 L -22.75880999999999 11.421490000000002 C -18.48288999999999 4.8612100000000025 -14.98839999999999 -2.1299999999999972 -12.33972999999999 -9.423329999999996 L -1.7323999999999913 -38.63153 L -1.7323999999999913 -38.63153 C -1.5840599999999914 -39.04 -1.2250099999999913 -39.347429999999996 -0.7817799999999913 -39.44549 C -0.33853999999999124 -39.543549999999996 0.12667000000000872 -39.41849 0.44994000000000867 -39.11436 C 11.11345000000001 -29.08233 17.56724000000001 -23.258919999999996 27.130160000000007 -4.1330699999999965 z" stroke-linecap="round" />
</g>
<g transform="matrix(-1.103883509 0.1355398519 -0.2015932644 -1.6418453826 159.8903667537 190.4411434302)" id="7elQJL4u6cPlKRTY6H-pO"  >
<path style="stroke: none; stroke-width: 1; stroke-dasharray: none; stroke-linecap: butt; stroke-dashoffset: 0; stroke-linejoin: miter; stroke-miterlimit: 4; fill: rgb(0,0,0); fill-rule: nonzero; opacity: 1;"  transform=" translate(-9.229e-7, 0.0000156192)" d="M 25.1152 -9.64992 C 32.56477 5.249219999999999 33.79625 11.80262 35.33494 22.651309999999995 L 35.33494 22.651309999999995 C 35.74582 25.548309999999994 34.320100000000004 28.427439999999997 31.408390000000004 30.580669999999994 C 28.496670000000005 32.733909999999995 24.369120000000002 33.961459999999995 20.040770000000002 33.961459999999995 L -3.0609199999999994 33.961459999999995 L -23.130779999999998 33.961459999999995 L -23.130779999999998 33.961459999999995 C -27.33457 33.960879999999996 -31.24561 32.514109999999995 -33.49643 30.126989999999996 C -35.747249999999994 27.739869999999996 -36.024829999999994 24.744389999999996 -34.23211 22.187889999999996 C -28.31852 13.754819999999995 -25.162689999999998 9.679099999999996 -18.34001 -3.9662800000000047 C -12.54834 -15.549620000000004 -10.819299999999998 -20.026320000000005 -8.39871 -28.142050000000005 L -8.39871 -28.142050000000005 C -7.53046 -31.053130000000003 -4.10781 -33.31317000000001 0.23690000000000033 -33.84432 C 4.58161 -34.37547 8.96847 -33.070150000000005 11.30531 -30.550900000000002 C 17.24555 -24.146970000000003 19.54036 -20.799640000000004 25.11521 -9.649930000000001 z" stroke-linecap="round" />
</g>
<g transform="matrix(-1.0120663583 0.1242661234 -0.1995974608 -1.6255908665 160.8620851749 194.4427045368)" id="lOiax8KwpOR4MtzZ56cxT"  >
<linearGradient id="SVGID_1736_60" gradientUnits="userSpaceOnUse" gradientTransform="matrix(1 0 0 1 -35.3166952372 -33.6505303332)"  x1="28.158477176475756" y1="83.16963391225457" x2="50.61431714522885" y2="-74.17900108554332">
<stop offset="0%" style="stop-color:#3DAEFB;stop-opacity: 1"/>
<stop offset="54.10655567128455%" style="stop-color:#369AF9;stop-opacity: 1"/>
<stop offset="100%" style="stop-color:#000000;stop-opacity: 1"/>
</linearGradient>
<path style="stroke: none; stroke-width: 1; stroke-dasharray: none; stroke-linecap: butt; stroke-dashoffset: 0; stroke-linejoin: miter; stroke-miterlimit: 4; fill: url(#SVGID_1736_60); fill-rule: nonzero; opacity: 1;"  transform=" translate(3.5e-8, 0.0000101666)" d="M 25.04588 -9.96087 C 32.47037 4.8881 33.71806 11.461649999999999 35.25125 22.25582 L 35.25125 22.25582 C 35.66691 25.1822 34.0891 28.08271 30.9028 30.24961 C 27.7165 32.41651 23.214769999999998 33.65051 18.496049999999997 33.65051 L -3.1302500000000038 33.65051 L -21.599060000000005 33.65051 L -21.599060000000005 33.65051 C -26.226430000000004 33.64998 -30.541630000000005 32.19728 -33.07596000000001 29.786849999999998 C -35.610290000000006 27.376419999999996 -36.02229000000001 24.333039999999997 -34.17173000000001 21.69252 C -28.28687000000001 13.295559999999998 -25.19189000000001 9.287879999999998 -18.40933000000001 -4.277230000000003 C -12.718740000000011 -15.658400000000002 -10.987230000000011 -20.088840000000005 -8.604700000000012 -28.052020000000002 L -8.604700000000012 -28.052020000000002 C -7.760050000000012 -30.875130000000002 -4.177850000000012 -33.071000000000005 0.3692199999999879 -33.55299 C 4.916299999999988 -34.034980000000004 9.463829999999987 -32.70086 11.761469999999989 -30.21083 C 17.536919999999988 -23.95178 19.631059999999987 -20.79052 25.04588999999999 -9.96087 z" stroke-linecap="round" />
</g>
<g transform="matrix(0.4796795155 -0.4967226792 1.0971067078 1.0594636325 82.9449703525 113.1309648942)" id="YkX1KdUu0cY4uExX8ANMt"  >
<path style="stroke: rgb(0,0,0); stroke-width: 0; stroke-dasharray: none; stroke-linecap: butt; stroke-dashoffset: 0; stroke-linejoin: miter; stroke-miterlimit: 4; fill: rgb(0,0,0); fill-rule: nonzero; opacity: 1;"  transform=" translate(0.000005, 0.00001)" d="M -30.16795 9.26619 L -29.53647 -29.734159999999996 L -29.53647 -29.734159999999996 L -29.53647 -29.734159999999996 C -12.110750000000003 -27.238609999999994 3.6646 -22.814219999999995 16.36065 -16.861769999999996 L 18.19238 -16.002969999999998 L 18.19238 -16.002969999999998 L 18.19238 -16.002969999999998 C 15.85604 -0.5967099999999981 19.88788 14.871690000000001 30.08103 29.608490000000003 L 30.167939999999998 29.734140000000004 L -27.445020000000003 25.717250000000003 z" stroke-linecap="round" />
</g>
<g transform="matrix(0.4796795156 -0.4967226793 1.0971067078 1.0594636325 86.679943155 109.7411792)" id="ILjdHXlfyz079VfipQ8yw"  >
<path style="stroke: rgb(0,0,0); stroke-width: 0; stroke-dasharray: none; stroke-linecap: butt; stroke-dashoffset: 0; stroke-linejoin: miter; stroke-miterlimit: 4; fill: rgb(255,255,255); fill-rule: nonzero; opacity: 1;"  transform=" translate(0.000005, 0.00001)" d="M -30.16795 9.26619 L -29.53647 -29.734159999999996 L -29.53647 -29.734159999999996 L -29.53647 -29.734159999999996 C -12.110750000000003 -27.238609999999994 3.6646 -22.814219999999995 16.36065 -16.861769999999996 L 18.19238 -16.002969999999998 L 18.19238 -16.002969999999998 L 18.19238 -16.002969999999998 C 15.85604 -0.5967099999999981 19.88788 14.871690000000001 30.08103 29.608490000000003 L 30.167939999999998 29.734140000000004 L -27.445020000000003 25.717250000000003 z" stroke-linecap="round" />
</g>
<g transform="matrix(0.5438382307 0 0 0.9883516306 223.8962258843 93.5341748313)" id="P1ts0IcgJpCQVxpdtAXoQ"  >
<path style="stroke: rgb(0,0,0); stroke-width: 0; stroke-dasharray: none; stroke-linecap: butt; stroke-dashoffset: 0; stroke-linejoin: miter; stroke-miterlimit: 4; fill: rgb(0,0,0); fill-rule: nonzero; opacity: 1;"  transform=" translate(-0.000005, 0.00001)" d="M -61.69849 29.86082 L -38.101150000000004 18.903959999999998 L -38.101150000000004 18.903959999999998 C -8.569310000000005 5.191549999999998 -3.4725000000000037 -18.784780000000005 -26.45595 -35.8772 L -26.457040000000003 -35.87801 L 61.698499999999996 -32.052220000000005 L 49.33806 -9.649530000000006 L 49.33806 -9.649530000000006 C 45.66388 -2.9902600000000055 43.13382 3.8440899999999942 41.781169999999996 10.763569999999994 L 38.047959999999996 29.860809999999994 L 38.047959999999996 29.860809999999994 L -12.330080000000002 35.87799 z" stroke-linecap="round" />
</g>
<g transform="matrix(0.5294974217 0 0 0.9883516306 219.8789059549 90.0354280961)" id="qIoVeVLC08IqeXOVokXtP"  >
<path style="stroke: rgb(0,0,0); stroke-width: 0; stroke-dasharray: none; stroke-linecap: butt; stroke-dashoffset: 0; stroke-linejoin: miter; stroke-miterlimit: 4; fill: rgb(255,255,255); fill-rule: nonzero; opacity: 1;"  transform=" translate(-0.000005, 0.00001)" d="M -61.69849 29.86082 L -38.17654 18.93897 L -38.17654 18.93897 C -8.396840000000005 5.111480000000002 -3.22954 -18.604089999999996 -26.26395 -35.73441 L -26.457040000000003 -35.878009999999996 L 61.698499999999996 -32.05222 L 49.216609999999996 -9.429389999999998 L 49.216609999999996 -9.429389999999998 C 45.62284 -2.9158599999999977 43.1502 3.760320000000002 41.82966999999999 10.515490000000003 L 38.047959999999996 29.860810000000004 L 38.047959999999996 29.860810000000004 L -12.330080000000002 35.877990000000004 z" stroke-linecap="round" />
</g>
<g transform="matrix(0.9333796229 0 0 0.8875371902 154.219549322 81.4903096887)" id="0HXPtNZJU4APzEHhgNYlZ"  >
<path style="stroke: rgb(0,0,0); stroke-width: 0; stroke-dasharray: none; stroke-linecap: butt; stroke-dashoffset: 0; stroke-linejoin: miter; stroke-miterlimit: 4; fill: rgb(0,0,0); fill-rule: nonzero; opacity: 1;"  transform=" translate(0, 0)" d="M 0 -37.0229 C 20.43664 -37.0229 37.0229 -20.43664 37.0229 0 C 37.0229 20.43664 20.43664 37.0229 0 37.0229 C -20.43664 37.0229 -37.0229 20.43664 -37.0229 0 C -37.0229 -20.43664 -20.43664 -37.0229 0 -37.0229 z" stroke-linecap="round" />
</g>
<g transform="matrix(0.8910746659 0 0 0.8848165649 154.219549322 76.9827075491)" id="kFYERRAj3RbkhfSSEg1vj"  >
<path style="stroke: rgb(0,0,0); stroke-width: 0; stroke-dasharray: none; stroke-linecap: butt; stroke-dashoffset: 0; stroke-linejoin: miter; stroke-miterlimit: 4; fill: rgb(255,255,255); fill-rule: nonzero; opacity: 1;"  transform=" translate(0, 0)" d="M 0 -37.0229 C 20.43664 -37.0229 37.0229 -20.43664 37.0229 0 C 37.0229 20.43664 20.43664 37.0229 0 37.0229 C -20.43664 37.0229 -37.0229 20.43664 -37.0229 0 C -37.0229 -20.43664 -20.43664 -37.0229 0 -37.0229 z" stroke-linecap="round" />
</g>
<g transform="matrix(0.5169856391 0 0 0.5169856391 154.2195513955 77.2144005731)" id="fIk-uxUqZfFmCwWu9fqe1"  >
<path style="stroke: rgb(0,0,0); stroke-width: 0; stroke-dasharray: none; stroke-linecap: butt; stroke-dashoffset: 0; stroke-linejoin: miter; stroke-miterlimit: 4; fill: rgb(0,0,0); fill-rule: nonzero; opacity: 1;"  transform=" translate(0, 0)" d="M 0 -37.0229 C 20.43664 -37.0229 37.0229 -20.43664 37.0229 0 C 37.0229 20.43664 20.43664 37.0229 0 37.0229 C -20.43664 37.0229 -37.0229 20.43664 -37.0229 0 C -37.0229 -20.43664 -20.43664 -37.0229 0 -37.0229 z" stroke-linecap="round" />
</g>
<g transform="matrix(0.5169856391 0 0 -0.5065481676 154.219549322 82.0077027035)" id="1rkY3094v0hCq9PSbKP8p"  >
<path style="stroke: rgb(0,0,0); stroke-width: 0; stroke-dasharray: none; stroke-linecap: butt; stroke-dashoffset: 0; stroke-linejoin: miter; stroke-miterlimit: 4; fill: rgb(63,179,252); fill-rule: nonzero; opacity: 1;"  transform=" translate(0, 0)" d="M 0 -37.0229 C 20.43664 -37.0229 37.0229 -20.43664 37.0229 0 C 37.0229 20.43664 20.43664 37.0229 0 37.0229 C -20.43664 37.0229 -37.0229 20.43664 -37.0229 0 C -37.0229 -20.43664 -20.43664 -37.0229 0 -37.0229 z" stroke-linecap="round" />
</g>
<g transform="matrix(0.9205048535 -0.3907311285 0.3907311285 0.9205048535 107.2747384141 132.2365538576)" id="FNWR-u4KfKNK0oUCy0VW-"  >
<path style="stroke: rgb(0,0,0); stroke-width: 0; stroke-dasharray: none; stroke-linecap: butt; stroke-dashoffset: 0; stroke-linejoin: miter; stroke-miterlimit: 4; fill: rgb(255,255,255); fill-rule: nonzero; opacity: 1;"  transform=" translate(-0.0000124288, 0.000005)" d="M -26.83283 -21.65183 L 7.9040099999999995 -21.65183 L 26.86106 7.879529999999999 C 26.86106 7.879529999999999 -10.385549999999999 21.65182 -19.06976 21.65182 C -27.75397 21.65182 -26.832819999999998 13.08501 -26.832819999999998 13.08501 z" stroke-linecap="round" />
</g>
<g transform="matrix(0.7689195432 -0.8539716675 0.8539716675 0.7689195432 218.4776851893 119.2226662508)" id="Xx9Qgnai2nk9Xey8NPnNH"  >
<path style="stroke: rgb(0,0,0); stroke-width: 0; stroke-dasharray: none; stroke-linecap: butt; stroke-dashoffset: 0; stroke-linejoin: miter; stroke-miterlimit: 4; fill: rgb(255,255,255); fill-rule: nonzero; opacity: 1;"  transform=" translate(0, 0)" d="M -18.54428 -16.24925 L 10.79456 -16.24925 L 18.54428 6.111709999999999 C 18.54428 6.111709999999999 14.62011 16.249249999999996 7.285400000000001 16.249249999999996 C -0.0493099999999993 16.249249999999996 -18.54428 13.089589999999996 -18.54428 13.089589999999996 z" stroke-linecap="round" />
</g>
</svg>