<?xml version="1.0" encoding="UTF-8" standalone="no" ?>
<!DOCTYPE svg PUBLIC "-//W3C//DTD SVG 1.1//EN" "http://www.w3.org/Graphics/SVG/1.1/DTD/svg11.dtd">
<svg xmlns="http://www.w3.org/2000/svg" xmlns:xlink="http://www.w3.org/1999/xlink" version="1.1" width="320" height="320" viewBox="0 0 320 320" xml:space="preserve">
<desc>Created with Fabric.js 5.3.0</desc>
<defs>
</defs>
<g transform="matrix(1.0189999718 0 0 1.0189999718 160.3576594698 159.6183179286)" id="eKAMaATS9j4pjC2fwNCUf"  >
<linearGradient id="SVGID_120" gradientUnits="userSpaceOnUse" gradientTransform="matrix(1 0 0 1 -157.01669 -157.01669)"  x1="10.147642461448442" y1="120.4205507104686" x2="326.0360255008826" y2="120.4205507104686">
<stop offset="0%" style="stop-color:#000000;stop-opacity: 1"/>
<stop offset="53.74866538528684%" style="stop-color:#808080;stop-opacity: 1"/>
<stop offset="100%" style="stop-color:#B0B0B0;stop-opacity: 1"/>
</linearGradient>
<path style="stroke: rgb(76,208,186); stroke-width: 0; stroke-dasharray: none; stroke-linecap: butt; stroke-dashoffset: 0; stroke-linejoin: miter; stroke-miterlimit: 4; fill: url(#SVGID_120); fill-rule: nonzero; opacity: 1;"  transform=" translate(0, 0)" d="M 0 -157.01669 C 86.67321 -157.01669 157.01669 -86.67321000000001 157.01669 0 C 157.01669 86.67321 86.67321000000001 157.01669 0 157.01669 C -86.67321 157.01669 -157.01669 86.67321000000001 -157.01669 0 C -157.01669 -86.67321 -86.67321000000001 -157.01669 0 -157.01669 z" stroke-linecap="round" />
</g>
<g transform="matrix(6.114 0 0 6.114 160.3576594698 160.136614704)" id="q0veQTwM-9V7ck6shuaEK"  >
<linearGradient id="SVGID_121" gradientUnits="userSpaceOnUse" gradientTransform="matrix(1 0 0 1 -24.53386 -24.53386)"  x1="33.145184253517286" y1="21.48417875221931" x2="-4.542415081716904" y2="29.967098789983908">
<stop offset="0%" style="stop-color:#CCCCCC;stop-opacity: 1"/>
<stop offset="52.349426580629085%" style="stop-color:#7E7E7E;stop-opacity: 1"/>
<stop offset="100%" style="stop-color:#000000;stop-opacity: 1"/>
</linearGradient>
<path style="stroke: rgb(104,39,232); stroke-width: 0; stroke-dasharray: none; stroke-linecap: butt; stroke-dashoffset: 0; stroke-linejoin: miter; stroke-miterlimit: 4; fill: url(#SVGID_121); fill-rule: nonzero; opacity: 1;"  transform=" translate(0, 0)" d="M 0 -24.53386 C 13.54269 -24.53386 24.53386 -13.54269 24.53386 0 C 24.53386 13.54269 13.54269 24.53386 0 24.53386 C -13.54269 24.53386 -24.53386 13.54269 -24.53386 0 C -24.53386 -13.54269 -13.54269 -24.53386 0 -24.53386 z" stroke-linecap="round" />
</g>
<g transform="matrix(0.9234568031 0 0 0.9234568031 159.8903667537 159.8903667537)" id="84ZZg-vmwFocLWNaOezcu"  >
<path style="stroke: rgb(190,166,223); stroke-width: 0; stroke-dasharray: none; stroke-linecap: butt; stroke-dashoffset: 0; stroke-linejoin: miter; stroke-miterlimit: 4; fill: rgb(255,255,255); fill-rule: nonzero; opacity: 1;"  transform=" translate(0, 0)" d="M 0 -129.94652 C 71.73048 -129.94652 129.94652 -71.73048 129.94652 0 C 129.94652 71.73048 71.73048 129.94652 0 129.94652 C -71.73048 129.94652 -129.94652 71.73048 -129.94652 0 C -129.94652 -71.73048 -71.73048 -129.94652 0 -129.94652 z" stroke-linecap="round" />
</g>
<g transform="matrix(0.96086954 0 0 0.96086954 160.3576594698 160.136614704)" id="46XjuW0OiMM4V7tME3BOF"  >
<linearGradient id="SVGID_122" gradientUnits="userSpaceOnUse" gradientTransform="matrix(1 0 0 1 -135.29412 -135.29412)"  x1="0" y1="135.29412119106564" x2="270.5882423821313" y2="135.29412119106564">
<stop offset="0%" style="stop-color:#0F0F0F;stop-opacity: 1"/>
<stop offset="50%" style="stop-color:#7e7e7e;stop-opacity: 1"/>
<stop offset="100%" style="stop-color:#999999;stop-opacity: 1"/>
</linearGradient>
<path style="stroke: rgb(202,66,130); stroke-width: 0; stroke-dasharray: none; stroke-linecap: butt; stroke-dashoffset: 0; stroke-linejoin: miter; stroke-miterlimit: 4; fill: url(#SVGID_122); fill-rule: nonzero; opacity: 1;"  transform=" translate(0, 0)" d="M 0 -135.29412 C 74.68235 -135.29412 135.29412 -74.68234999999999 135.29412 0 C 135.29412 74.68235 74.68234999999999 135.29412 0 135.29412 C -74.68235 135.29412 -135.29412 74.68234999999999 -135.29412 0 C -135.29412 -74.68235 -74.68234999999999 -135.29412 0 -135.29412 z" stroke-linecap="round" />
</g>
<g transform="matrix(-0.9234568031 0 0 -0.9310185853 160 160)" id="Tkp7GaKSY8DwQ627HqnvT"  >
<path style="stroke: rgb(190,166,223); stroke-width: 0; stroke-dasharray: none; stroke-linecap: butt; stroke-dashoffset: 0; stroke-linejoin: miter; stroke-miterlimit: 4; fill: rgb(255,190,141); fill-rule: nonzero; opacity: 1;"  transform=" translate(0, 0)" d="M 0 -129.94652 C 71.73048 -129.94652 129.94652 -71.73048 129.94652 0 C 129.94652 71.73048 71.73048 129.94652 0 129.94652 C -71.73048 129.94652 -129.94652 71.73048 -129.94652 0 C -129.94652 -71.73048 -71.73048 -129.94652 0 -129.94652 z" stroke-linecap="round" />
</g>
<g transform="matrix(-0.9234568031 0 0 -0.8982486775 159.8903667537 165.1313295274)" id="9c6loy7mlpGhUcWqMRQ09"  >
<linearGradient id="SVGID_2437_123" gradientUnits="userSpaceOnUse" gradientTransform="matrix(1 0 0 1 -129.94652 -129.94652)"  x1="110.78774011328989" y1="-29.337790293655758" x2="138.27642750070254" y2="461.3606563628456">
<stop offset="0%" style="stop-color:#FF7600;stop-opacity: 1"/>
<stop offset="70.42402965334708%" style="stop-color:#FFA32C;stop-opacity: 1"/>
<stop offset="100%" style="stop-color:#000000;stop-opacity: 1"/>
</linearGradient>
<path style="stroke: rgb(190,166,223); stroke-width: 0; stroke-dasharray: none; stroke-linecap: butt; stroke-dashoffset: 0; stroke-linejoin: miter; stroke-miterlimit: 4; fill: url(#SVGID_2437_123); fill-rule: nonzero; opacity: 1;"  transform=" translate(0, 0)" d="M 0 -129.94652 C 71.73048 -129.94652 129.94652 -71.73048 129.94652 0 C 129.94652 71.73048 71.73048 129.94652 0 129.94652 C -71.73048 129.94652 -129.94652 71.73048 -129.94652 0 C -129.94652 -71.73048 -71.73048 -129.94652 0 -129.94652 z" stroke-linecap="round" />
</g>
<g transform="matrix(0.5222648173 -0.0827186208 0.1346497548 0.8501450936 144.9444688538 77.0020844593)" id="sOZltCynDx7RRKAUqx6g6"  >
<path style="stroke: rgb(255,255,255); stroke-width: 0; stroke-dasharray: none; stroke-linecap: butt; stroke-dashoffset: 0; stroke-linejoin: miter; stroke-miterlimit: 4; fill: rgb(0,0,0); fill-rule: nonzero; opacity: 1;"  transform=" translate(0.000005, 0.000005)" d="M -56.01343 9.62032 C -58.0229 -19.58533 -45.44965 -67.57066 -45.44965 -67.57066 L -28.88694 -28.558880000000002 L -4.092559999999999 -37.55053 L 21.121290000000002 -29.749140000000004 L 59.973220000000005 -47.96258 L 41.31958 -12.338680000000004 L 41.31958 -12.338680000000004 C 30.768390000000004 7.811509999999995 32.16615 29.605489999999996 45.265280000000004 49.18324 L 45.265280000000004 49.18324 C 45.265280000000004 49.18324 23.919160000000005 49.057199999999995 11.031450000000007 49.78256 C 7.2392700000000065 49.99599 3.1061800000000064 50.328559999999996 -1.2400999999999929 50.8319 C -20.357159999999993 53.045809999999996 -59.973229999999994 67.57065 -59.973229999999994 67.57065 C -59.973229999999994 67.57065 -54.00395999999999 38.82596 -56.01342999999999 9.620310000000003 z" stroke-linecap="round" />
</g>
<g transform="matrix(0.3907438006 2.780286608 -1.2273918706 0.172498678 160.2385626657 189.4051546034)" id="YzoyhsgQCdF-sEBDE8GSI"  >
<path style="stroke: none; stroke-width: 1; stroke-dasharray: none; stroke-linecap: butt; stroke-dashoffset: 0; stroke-linejoin: miter; stroke-miterlimit: 4; fill: rgb(0,0,0); fill-rule: nonzero; opacity: 1;"  transform=" translate(0.000005, 0.000005)" d="M -9.23969 37.71602 L 8.907250000000001 23.94041 L 40.368719999999996 -1.4344099999999997 L -9.512400000000007 -37.716029999999996 L -1.645650000000007 -9.521009999999997 C -1.645650000000007 -9.521009999999997 -6.390530000000007 -3.6509199999999966 -16.609260000000006 -3.418359999999997 C -19.054420000000007 -3.362709999999997 -32.92546 -6.019989999999997 -32.92546 -6.019989999999997 L -40.26149 -5.982199999999997 L -40.36873 7.951710000000002 C -40.36873 7.951710000000002 -35.90192 12.222580000000002 -25.56292 12.827560000000002 C -15.223919999999998 13.432540000000001 0.9872600000000027 10.371610000000002 0.9872600000000027 10.371610000000002 z" stroke-linecap="round" />
</g>
<g transform="matrix(0.3907438006 2.780286608 -1.1865173529 0.1667541392 164.1700076249 183.022573186)" id="5kRyCOL4XnMths5ghSubw"  >
<path style="stroke: none; stroke-width: 1; stroke-dasharray: none; stroke-linecap: butt; stroke-dashoffset: 0; stroke-linejoin: miter; stroke-miterlimit: 4; fill: rgb(255,255,255); fill-rule: nonzero; opacity: 1;"  transform=" translate(0, 0)" d="M -5.16341 35.25468 L 39.85492 -0.6031300000000002 L -6.20881 -35.25468 L 1.1272200000000003 -8.353200000000001 C 1.1272200000000003 -8.353200000000001 -5.876729999999999 -5.091670000000001 -16.09545 -4.859110000000001 C -18.54061 -4.803460000000001 -32.411649999999995 -7.460740000000001 -32.411649999999995 -7.460740000000001 L -39.747679999999995 -7.422950000000001 L -39.85491999999999 6.510959999999998 C -39.85491999999999 6.510959999999998 -35.38810999999999 10.78183 -25.04910999999999 11.386809999999997 C -14.710109999999991 11.991789999999996 1.5010700000000092 8.930859999999997 1.5010700000000092 8.930859999999997 z" stroke-linecap="round" />
</g>
<g transform="matrix(0.4852210622 -0.0768514664 0.1346497548 0.8501450936 151.0113053619 73.3553537439)" id="wWRQSgZ_yMe71E_mN64QP"  >
<path style="stroke: rgb(255,255,255); stroke-width: 0; stroke-dasharray: none; stroke-linecap: butt; stroke-dashoffset: 0; stroke-linejoin: miter; stroke-miterlimit: 4; fill: rgb(255,255,255); fill-rule: nonzero; opacity: 1;"  transform=" translate(0.000005, -0.000005)" d="M -56.01343 4.96457 C -58.0229 -24.241079999999997 -51.63661 -62.914899999999996 -51.63661 -62.914899999999996 L -28.88694 -33.21462 L -4.092559999999999 -42.206269999999996 L 21.121290000000002 -34.40488 L 59.973220000000005 -52.61832 L 38.42401000000001 -11.464599999999997 L 38.42401000000001 -11.464599999999997 C 29.568500000000007 5.447250000000004 27.29503000000001 23.25931 31.76269000000001 40.725120000000004 L 32.86950000000001 45.052080000000004 C 32.86950000000001 45.052080000000004 17.87696000000001 43.962250000000004 -1.240099999999991 46.17616 C -20.35715999999999 48.39007 -59.973229999999994 62.914910000000006 -59.973229999999994 62.914910000000006 C -59.973229999999994 62.914910000000006 -54.00395999999999 34.17022000000001 -56.01342999999999 4.964570000000009 z" stroke-linecap="round" />
</g>
<g transform="matrix(1 0 0 1 147.2929983754 178.9761572907)" id="7eC0Nx4RKkdj81pHOGxGR"  >
<path style="stroke: rgb(0,0,0); stroke-width: 1; stroke-dasharray: none; stroke-linecap: butt; stroke-dashoffset: 0; stroke-linejoin: miter; stroke-miterlimit: 4; fill: rgb(255,255,255); fill-opacity: 0; fill-rule: nonzero; opacity: 1;"  transform=" translate(0, 0)" d="M 0 0" stroke-linecap="round" />
</g>
</svg>