<?xml version="1.0" encoding="UTF-8" standalone="no" ?>
<!DOCTYPE svg PUBLIC "-//W3C//DTD SVG 1.1//EN" "http://www.w3.org/Graphics/SVG/1.1/DTD/svg11.dtd">
<svg xmlns="http://www.w3.org/2000/svg" xmlns:xlink="http://www.w3.org/1999/xlink" version="1.1" width="320" height="320" viewBox="0 0 320 320" xml:space="preserve">
<desc>Created with Fabric.js 5.3.0</desc>
<defs>
</defs>
<g transform="matrix(1.0189999718 0 0 1.0189999718 160.3576594698 160.136614704)" id="eKAMaATS9j4pjC2fwNCUf"  >
<linearGradient id="SVGID_49" gradientUnits="userSpaceOnUse" gradientTransform="matrix(1 0 0 1 -157.01669 -157.01669)"  x1="10.147642461448442" y1="120.4205507104686" x2="326.0360255008826" y2="120.4205507104686">
<stop offset="0%" style="stop-color:#000000;stop-opacity: 1"/>
<stop offset="53.74866538528684%" style="stop-color:#808080;stop-opacity: 1"/>
<stop offset="100%" style="stop-color:#B0B0B0;stop-opacity: 1"/>
</linearGradient>
<path style="stroke: rgb(76,208,186); stroke-width: 0; stroke-dasharray: none; stroke-linecap: butt; stroke-dashoffset: 0; stroke-linejoin: miter; stroke-miterlimit: 4; fill: url(#SVGID_49); fill-rule: nonzero; opacity: 1;"  transform=" translate(0, 0)" d="M 0 -157.01669 C 86.67321 -157.01669 157.01669 -86.67321000000001 157.01669 0 C 157.01669 86.67321 86.67321000000001 157.01669 0 157.01669 C -86.67321 157.01669 -157.01669 86.67321000000001 -157.01669 0 C -157.01669 -86.67321 -86.67321000000001 -157.01669 0 -157.01669 z" stroke-linecap="round" />
</g>
<g transform="matrix(1 0 0 1 98.180962323 154.7657938789)" id="cgmOiKNXTfICy2zwxtalJ"  >
<path style="stroke: rgb(0,0,0); stroke-width: 0; stroke-dasharray: none; stroke-linecap: butt; stroke-dashoffset: 0; stroke-linejoin: miter; stroke-miterlimit: 4; fill: rgb(0,0,0); fill-rule: nonzero; opacity: 1;"  transform=" translate(-28.507465, -28.507465)" d="M 0 0 L 57.01493 0 L 57.01493 57.01493 L 0 57.01493 z" stroke-linecap="round" />
</g>
<g transform="matrix(6.114 0 0 6.114 160.3576594698 160.136614704)" id="q0veQTwM-9V7ck6shuaEK"  >
<linearGradient id="SVGID_50" gradientUnits="userSpaceOnUse" gradientTransform="matrix(1 0 0 1 -24.53386 -24.53386)"  x1="33.145184253517286" y1="21.48417875221931" x2="-4.542415081716904" y2="29.967098789983908">
<stop offset="0%" style="stop-color:#CCCCCC;stop-opacity: 1"/>
<stop offset="52.349426580629085%" style="stop-color:#7E7E7E;stop-opacity: 1"/>
<stop offset="100%" style="stop-color:#000000;stop-opacity: 1"/>
</linearGradient>
<path style="stroke: rgb(104,39,232); stroke-width: 0; stroke-dasharray: none; stroke-linecap: butt; stroke-dashoffset: 0; stroke-linejoin: miter; stroke-miterlimit: 4; fill: url(#SVGID_50); fill-rule: nonzero; opacity: 1;"  transform=" translate(0, 0)" d="M 0 -24.53386 C 13.54269 -24.53386 24.53386 -13.54269 24.53386 0 C 24.53386 13.54269 13.54269 24.53386 0 24.53386 C -13.54269 24.53386 -24.53386 13.54269 -24.53386 0 C -24.53386 -13.54269 -13.54269 -24.53386 0 -24.53386 z" stroke-linecap="round" />
</g>
<g transform="matrix(0.96086954 0 0 0.96086954 160.3576594698 160.136614704)" id="46XjuW0OiMM4V7tME3BOF"  >
<linearGradient id="SVGID_51" gradientUnits="userSpaceOnUse" gradientTransform="matrix(1 0 0 1 -135.29412 -135.29412)"  x1="0" y1="135.29412119106564" x2="270.5882423821313" y2="135.29412119106564">
<stop offset="0%" style="stop-color:#0F0F0F;stop-opacity: 1"/>
<stop offset="50%" style="stop-color:#7e7e7e;stop-opacity: 1"/>
<stop offset="100%" style="stop-color:#999999;stop-opacity: 1"/>
</linearGradient>
<path style="stroke: rgb(202,66,130); stroke-width: 0; stroke-dasharray: none; stroke-linecap: butt; stroke-dashoffset: 0; stroke-linejoin: miter; stroke-miterlimit: 4; fill: url(#SVGID_51); fill-rule: nonzero; opacity: 1;"  transform=" translate(0, 0)" d="M 0 -135.29412 C 74.68235 -135.29412 135.29412 -74.68234999999999 135.29412 0 C 135.29412 74.68235 74.68234999999999 135.29412 0 135.29412 C -74.68235 135.29412 -135.29412 74.68234999999999 -135.29412 0 C -135.29412 -74.68235 -74.68234999999999 -135.29412 0 -135.29412 z" stroke-linecap="round" />
</g>
<g transform="matrix(0.9234568031 0 0 0.9234568031 159.8903667537 159.8903667537)" id="84ZZg-vmwFocLWNaOezcu"  >
<linearGradient id="SVGID_52" gradientUnits="userSpaceOnUse" gradientTransform="matrix(1 0 0 1 -129.94652 -129.94652)"  x1="135.3609606647338" y1="-2.842170943040401e-14" x2="121.63148732102178" y2="293.3465368024287">
<stop offset="0%" style="stop-color:#FFFFFF;stop-opacity: 1"/>
<stop offset="50%" style="stop-color:#7e7e7e;stop-opacity: 1"/>
<stop offset="100%" style="stop-color:#000000;stop-opacity: 1"/>
</linearGradient>
<path style="stroke: rgb(190,166,223); stroke-width: 0; stroke-dasharray: none; stroke-linecap: butt; stroke-dashoffset: 0; stroke-linejoin: miter; stroke-miterlimit: 4; fill: url(#SVGID_52); fill-rule: nonzero; opacity: 1;"  transform=" translate(0, 0)" d="M 0 -129.94652 C 71.73048 -129.94652 129.94652 -71.73048 129.94652 0 C 129.94652 71.73048 71.73048 129.94652 0 129.94652 C -71.73048 129.94652 -129.94652 71.73048 -129.94652 0 C -129.94652 -71.73048 -71.73048 -129.94652 0 -129.94652 z" stroke-linecap="round" />
</g>
<g transform="matrix(-0.9234568031 0 0 -0.8950063217 159.8903667537 163.587407804)" id="9c6loy7mlpGhUcWqMRQ09"  >
<linearGradient id="SVGID_1239_53" gradientUnits="userSpaceOnUse" gradientTransform="matrix(1 0 0 1 -129.94652 -129.94652)"  x1="129.94652" y1="2.842170943040401e-14" x2="124.80222799220607" y2="362.8384396051115">
<stop offset="0%" style="stop-color:#FF0103;stop-opacity: 1"/>
<stop offset="97.28078032705298%" style="stop-color:#FF46AA;stop-opacity: 1"/>
<stop offset="100%" style="stop-color:#000000;stop-opacity: 1"/>
</linearGradient>
<path style="stroke: rgb(190,166,223); stroke-width: 0; stroke-dasharray: none; stroke-linecap: butt; stroke-dashoffset: 0; stroke-linejoin: miter; stroke-miterlimit: 4; fill: url(#SVGID_1239_53); fill-rule: nonzero; opacity: 1;"  transform=" translate(0, 0)" d="M 0 -129.94652 C 71.73048 -129.94652 129.94652 -71.73048 129.94652 0 C 129.94652 71.73048 71.73048 129.94652 0 129.94652 C -71.73048 129.94652 -129.94652 71.73048 -129.94652 0 C -129.94652 -71.73048 -71.73048 -129.94652 0 -129.94652 z" stroke-linecap="round" />
</g>
<g transform="matrix(0.6657142456 0 0 0.6425241091 225.3576558978 183.9627515831)" id="o96vJDWcqjq0CsZi9pyJe"  >
<path style="stroke: rgb(22,240,60); stroke-width: 0; stroke-dasharray: none; stroke-linecap: butt; stroke-dashoffset: 0; stroke-linejoin: miter; stroke-miterlimit: 4; fill: rgb(0,0,0); fill-rule: nonzero; opacity: 1;"  transform=" translate(0, 0)" d="M 0 -97.63949 C 53.897 -97.63949 97.63949 -53.897 97.63949 0 C 97.63949 53.897 53.897 97.63949 0 97.63949 C -53.897 97.63949 -97.63949 53.897 -97.63949 0 C -97.63949 -53.897 -53.897 -97.63949 0 -97.63949 z" stroke-linecap="round" />
</g>
<g transform="matrix(0.6425241091 0 0 0.6425241091 227.6219318896 177.257064375)" id="TKWH5YbvESX0t6TPs62l3"  >
<path style="stroke: rgb(22,240,60); stroke-width: 0; stroke-dasharray: none; stroke-linecap: butt; stroke-dashoffset: 0; stroke-linejoin: miter; stroke-miterlimit: 4; fill: rgb(255,255,255); fill-rule: nonzero; opacity: 1;"  transform=" translate(0, 0)" d="M 0 -97.63949 C 53.897 -97.63949 97.63949 -53.897 97.63949 0 C 97.63949 53.897 53.897 97.63949 0 97.63949 C -53.897 97.63949 -97.63949 53.897 -97.63949 0 C -97.63949 -53.897 -53.897 -97.63949 0 -97.63949 z" stroke-linecap="round" />
</g>
<g transform="matrix(0.8252258218 -0.4574301425 0.4848096202 0.8746197071 117.9438203243 107.5700554943)" id="U_R-04DqtPQK3rb24ktW0"  >
<path style="stroke: rgb(111,193,32); stroke-width: 0; stroke-dasharray: none; stroke-linecap: butt; stroke-dashoffset: 0; stroke-linejoin: miter; stroke-miterlimit: 4; fill: rgb(0,0,0); fill-rule: nonzero; opacity: 1;"  transform=" translate(0.00000976, 0)" d="M -15.01127 -42.17188 C 10.25912 -42.17188 29.41248 -24.28854 29.41248 0.9818500000000014 C 29.41248 26.25224 13.553359999999998 42.17188 -11.717020000000002 42.17188 L -10.414550000000002 39.822160000000004 C -3.912060000000002 36.411300000000004 -33.554990000000004 21.347280000000005 -28.917540000000002 15.654270000000004 C -28.820470000000004 15.535100000000003 -28.498500000000003 15.101690000000003 -28.20792 15.145090000000003 L -28.20792 15.145090000000003 C -20.389570000000003 16.312820000000002 -12.498190000000001 13.502820000000003 -7.447000000000003 7.7524400000000036 C -2.3958100000000027 2.0020600000000037 -0.9339700000000031 -5.8358199999999965 -3.601160000000003 -12.867739999999998 C -7.280290000000003 -22.5676 -15.011280000000003 -42.17188 -15.011280000000003 -42.17188 z" stroke-linecap="round" />
</g>
<g transform="matrix(0.8746197071 -0.4848096202 0.4848096202 0.8746197071 121.9234467331 109.261115434)" id="RHTZqYVXytmXoOtqxcQJ-"  >
<path style="stroke: rgb(111,193,32); stroke-width: 0; stroke-dasharray: none; stroke-linecap: butt; stroke-dashoffset: 0; stroke-linejoin: miter; stroke-miterlimit: 4; fill: rgb(255,255,255); fill-rule: nonzero; opacity: 1;"  transform=" translate(-0.0000028013, 0.000005)" d="M -16.31147 -45.77969 C 8.958919999999999 -45.77969 29.468220000000002 -25.270390000000003 29.468220000000002 0 C 29.468220000000002 25.27039 8.958920000000003 45.77969 -16.31147 45.77969 L -16.31147 45.77969 C -9.80898 42.36883 -33.49925 20.365430000000003 -28.861800000000002 14.672420000000002 C -28.61604 14.370720000000002 -27.364420000000003 14.872120000000002 -26.626910000000002 14.970470000000002 L -26.626910000000002 14.970470000000002 C -18.255410000000005 16.086930000000002 -9.858350000000002 13.105050000000002 -4.065890000000003 6.958840000000002 C 1.726569999999997 0.8126300000000022 4.206029999999997 -7.746259999999998 2.5958599999999965 -16.036959999999997 C 0.37850999999999635 -27.454049999999995 -5.018100000000003 -39.85579 -16.311470000000007 -45.7797 z" stroke-linecap="round" />
</g>
<g transform="matrix(2.1209512231 0.6081729766 -0.0970654124 0.338507321 96.2923574218 138.9230964525)" id="8QM4NV87b__mK90Cyq4F5"  >
<path style="stroke: rgb(0,0,0); stroke-width: 0; stroke-dasharray: none; stroke-linecap: butt; stroke-dashoffset: 0; stroke-linejoin: miter; stroke-miterlimit: 4; fill: rgb(0,0,0); fill-rule: nonzero; opacity: 1;"  transform=" translate(0, 0)" d="M -28.22738 13.08912 C -29.5753 -0.854140000000001 -34.35201 -71.3358 -34.35201 -71.3358 L -32.31386 -66.54778 L -24.138909999999996 -30.876270000000005 L 33.759420000000006 -25.391520000000007 L 34.35201000000001 43.94034999999999 C 34.35201000000001 43.94034999999999 2.2042400000000058 37.88120999999999 -12.45727999999999 45.85346999999999 C -27.11879999999999 53.825729999999986 -27.213689999999993 71.33579999999999 -27.213689999999993 71.33579999999999 C -27.213689999999993 71.33579999999999 -26.08467999999999 35.25374999999999 -28.227379999999993 13.089119999999994 z" stroke-linecap="round" />
</g>
<g transform="matrix(2.2201163995 0.6366081334 -0.0970654124 0.338507321 103.0975606865 138.76785534)" id="9NZIN3QoBt_M3YmxqnX6b"  >
<path style="stroke: rgb(193,67,21); stroke-width: 0; stroke-dasharray: none; stroke-linecap: butt; stroke-dashoffset: 0; stroke-linejoin: miter; stroke-miterlimit: 4; fill: rgb(255,255,255); fill-rule: nonzero; opacity: 1;"  transform=" translate(0, 0.000005)" d="M -28.58802 2.91654 C -30.73072 -19.248089999999998 -33.39878 -61.163219999999995 -33.39878 -61.163219999999995 L -24.499550000000003 -41.04885999999999 L 33.39878 -35.56410999999999 L 33.39878 33.820730000000005 C 33.39878 33.820730000000005 1.8436000000000021 27.708620000000003 -12.81792 35.68088 C -27.47944 43.65314 -27.574330000000003 61.16321000000001 -27.574330000000003 61.16321000000001 C -27.574330000000003 61.16321000000001 -26.445320000000002 25.081160000000004 -28.588020000000004 2.9165300000000087 z" stroke-linecap="round" />
</g>
<g transform="matrix(2.4305860989 0.7431047444 -0.2611171178 0.8540756085 125.4598966344 143.7963381365)" id="dlF1XNl0PiObAIM8NuXxY"  >
<path style="stroke: rgb(0,0,0); stroke-width: 0; stroke-dasharray: none; stroke-linecap: butt; stroke-dashoffset: 0; stroke-linejoin: miter; stroke-miterlimit: 4; fill: rgb(255,255,255); fill-rule: nonzero; opacity: 1;"  transform=" translate(0, 0)" d="M -12.83582 -12.83582 L 12.83582 -12.83582 L 12.83582 12.83582 L -12.83582 12.83582 z" stroke-linecap="round" />
</g>
<g transform="matrix(0.4237571469 0 0 0.4089955789 227.6219318896 178.7019732351)" id="oiGS139sTkyyUDbxtBb4d"  >
<path style="stroke: rgb(22,240,60); stroke-width: 0; stroke-dasharray: none; stroke-linecap: butt; stroke-dashoffset: 0; stroke-linejoin: miter; stroke-miterlimit: 4; fill: rgb(0,0,0); fill-rule: nonzero; opacity: 1;"  transform=" translate(0, 0)" d="M 0 -97.63949 C 53.897 -97.63949 97.63949 -53.897 97.63949 0 C 97.63949 53.897 53.897 97.63949 0 97.63949 C -53.897 97.63949 -97.63949 53.897 -97.63949 0 C -97.63949 -53.897 -53.897 -97.63949 0 -97.63949 z" stroke-linecap="round" />
</g>
<g transform="matrix(0.7610900897 0 0 0.6660955167 227.6219318896 183.9627515831)" id="aVpFLFiUxSDbaNW9bo2S8"  >
<linearGradient id="SVGID_1256_54" gradientUnits="userSpaceOnUse" gradientTransform="matrix(1 0 0 1 -54.36338 -54.36338)"  x1="57.93991416309013" y1="111.58798163724973" x2="54.36337505641996" y2="-76.53791249722812">
<stop offset="0%" style="stop-color:#FF0D29;stop-opacity: 1"/>
<stop offset="78.55481252551321%" style="stop-color:#FF2370;stop-opacity: 1"/>
<stop offset="100%" style="stop-color:#000000;stop-opacity: 1"/>
</linearGradient>
<path style="stroke: rgb(238,194,52); stroke-width: 0; stroke-dasharray: none; stroke-linecap: butt; stroke-dashoffset: 0; stroke-linejoin: miter; stroke-miterlimit: 4; fill: url(#SVGID_1256_54); fill-rule: nonzero; opacity: 1;"  transform=" translate(0, 0)" d="M 0 -54.36338 C 30.00859 -54.36338 54.36338 -30.008589999999998 54.36338 0 C 54.36338 30.00859 30.008589999999998 54.36338 0 54.36338 C -30.00859 54.36338 -54.36338 30.008589999999998 -54.36338 0 C -54.36338 -30.00859 -30.008589999999998 -54.36338 0 -54.36338 z" stroke-linecap="round" />
</g>
</svg>